<svg xmlns="http://www.w3.org/2000/svg" role="img" aria-label="OwnerStamp logo" viewBox="0 0 508 120" width="508" height="120"><rect x="255.12" y="14" width="238.87" height="95" fill="#F6F2EC"/><g transform="translate(14.00 96.00)" fill="#F6F2EC"><g transform="scale(0.10100000 -0.10100000)"><path d="M42 544Q42 587 57.0 620.0Q72 653 97 675Q121 696 151.5 707.0Q182 718 213 718Q244 718 274.5 707.0Q305 696 330 675Q354 653 369.0 620.0Q384 587 384 544V168Q384 123 369.0 91.0Q354 59 330 38Q305 16 274.5 5.0Q244 -6 213 -6Q182 -6 151.5 5.0Q121 16 97 38Q72 59 57.0 91.0Q42 123 42 168ZM144 168Q144 131 164.5 113.5Q185 96 213 96Q241 96 261.5 113.5Q282 131 282 168V544Q282 581 261.5 598.5Q241 616 213 616Q185 616 164.5 598.5Q144 581 144 544Z" transform="translate(0.00 0)"/><path d="M577 712 471 0H375L297 462H295L218 0H122L16 712H124L175 260H177L257 712H335L418 249H420L469 712Z" transform="translate(418.00 0)"/><path d="M44 0V712H142L296 283H298V712H400V0H304L148 428H146V0Z" transform="translate(1003.00 0)"/><path d="M48 0V712H352V616H150V407H326V311H150V102H352V0Z" transform="translate(1439.00 0)"/><path d="M150 616V394H208Q235 394 251.0 401.5Q267 409 276 423Q284 437 287.0 457.5Q290 478 290 505Q290 532 287.0 552.5Q284 573 275 588Q256 616 203 616ZM48 0V712H212Q392 712 392 503Q392 440 372.5 396.0Q353 352 304 325L414 0H306L211 304H150V0Z" transform="translate(1801.00 0)"/></g></g><g transform="translate(270.12 96.00)" fill="#242322"><g transform="scale(0.10100000 -0.10100000)"><path d="M378 507H276V530Q276 565 259.5 590.5Q243 616 204 616Q183 616 170.0 608.0Q157 600 149 588Q141 575 138.0 558.5Q135 542 135 524Q135 503 136.5 489.0Q138 475 144 464Q150 453 161.5 445.0Q173 437 193 429L271 398Q305 385 326.0 367.5Q347 350 359 327Q370 303 374.0 272.5Q378 242 378 203Q378 158 369.0 119.5Q360 81 340 54Q319 26 285.0 10.0Q251 -6 202 -6Q165 -6 133.0 7.0Q101 20 78 43Q55 66 41.5 96.5Q28 127 28 163V201H130V169Q130 141 146.5 118.5Q163 96 202 96Q228 96 242.5 103.5Q257 111 265 125Q273 139 274.5 158.5Q276 178 276 202Q276 230 274.0 248.0Q272 266 266 277Q259 288 247.5 295.0Q236 302 217 310L144 340Q78 367 55.5 411.5Q33 456 33 523Q33 563 44.0 599.0Q55 635 77 661Q98 687 130.5 702.5Q163 718 208 718Q246 718 277.5 704.0Q309 690 332 667Q378 619 378 557Z" transform="translate(0.00 0)"/><path d="M115 0V616H-3V712H335V616H217V0Z" transform="translate(398.00 0)"/><path d="M254 249 204 507H202L152 249ZM2 0 161 712H246L405 0H303L273 153H134L104 0Z" transform="translate(722.00 0)"/><path d="M48 0V712H146L277 335H279L409 712H508V0H406V433H404L303 127H252L152 433H150V0Z" transform="translate(1121.00 0)"/><path d="M48 0V712H201Q243 712 275.0 701.0Q307 690 333 662Q359 634 369.0 596.5Q379 559 379 495Q379 447 373.5 414.0Q368 381 350 352Q329 317 294.0 297.5Q259 278 202 278H150V0ZM150 616V374H199Q230 374 247.0 383.0Q264 392 272 408Q280 423 281.5 445.0Q283 467 283 494Q283 519 282.0 541.5Q281 564 273 581Q265 598 249.0 607.0Q233 616 203 616Z" transform="translate(1669.00 0)"/></g></g></svg>